<svg xmlns="http://www.w3.org/2000/svg" width="1642" height="976" viewBox="0 0 1642 976" font-family="Helvetica, Arial, sans-serif" font-size="15">
<defs><marker id="arr" viewBox="0 0 10 10" refX="9" refY="5" markerWidth="8" markerHeight="8" orient="auto-start-reverse"><path d="M0,0 L10,5 L0,10 z" fill="#2B3A35"/></marker></defs>
<rect width="1642" height="976" fill="#FFFFFF"/>
<text x="96" y="34" font-size="22" font-weight="700" fill="#121A17">Panel D. Phase 4: build the study and draft the analyses</text>
<text x="96" y="56" font-size="14" fill="#5F6B66">Time runs left to right. Parallelogram = investigator input · diamond = decision · rectangle = process · rounded = start or end · page shape = output.</text>
<text x="96" y="76" font-size="14" fill="#5F6B66">Numbered circles continue on the next panel. Investigator inputs are tagged I1 to I11 and decisions D1 to D11, in the order they are made; plain rectangles in the investigator lane are presses.</text>
<rect x="96" y="142" width="1416" height="268" fill="#F4F8F6" stroke="#CDD4D0"/>
<rect x="8" y="142" width="88" height="268" fill="#0F6B5B" stroke="#CDD4D0"/>
<g transform="translate(52,276.0) rotate(-90)">
<text text-anchor="middle" fill="#FFFFFF" font-weight="700" font-size="16" y="-6">Investigator</text>
<text text-anchor="middle" fill="#FFFFFF" font-size="12.5" y="14">inputs and decisions</text></g>
<rect x="96" y="410" width="1416" height="268" fill="#FBF6EC" stroke="#CDD4D0"/>
<rect x="8" y="410" width="88" height="268" fill="#B07A16" stroke="#CDD4D0"/>
<g transform="translate(52,544.0) rotate(-90)">
<text text-anchor="middle" fill="#FFFFFF" font-weight="700" font-size="16" y="-6">Stochastic LLMs</text>
<text text-anchor="middle" fill="#FFFFFF" font-size="12.5" y="14">draft and review</text></g>
<rect x="96" y="678" width="1416" height="268" fill="#F1F3F7" stroke="#CDD4D0"/>
<rect x="8" y="678" width="88" height="268" fill="#3A4A78" stroke="#CDD4D0"/>
<g transform="translate(52,812.0) rotate(-90)">
<text text-anchor="middle" fill="#FFFFFF" font-weight="700" font-size="16" y="-6">Deterministic code</text>
<text text-anchor="middle" fill="#FFFFFF" font-size="12.5" y="14">gates, calculators, checks</text></g>
<rect x="96" y="96" width="1416" height="46" fill="#E8EEEA" stroke="#CDD4D0"/>
<text x="804.0" y="125" text-anchor="middle" font-size="16" font-weight="700" fill="#0F6B5B">Phase 4: build the study and draft the analyses</text>
<circle cx="78.0" cy="276.0" r="14" fill="#FFFFFF" stroke="#2B3A35" stroke-width="1.6"/><text x="78.0" y="281.0" text-anchor="middle" font-size="14" font-weight="700">5</text>
<line x1="94.0" y1="276.0" x2="116.0" y2="276.0" stroke="#2B3A35" stroke-width="1.6" marker-end="url(#arr)"/>
<path d="M228.0,328.0 L228.0,738.0" fill="none" stroke="#2B3A35" stroke-width="1.6" marker-end="url(#arr)"/>
<path d="M214.0,738.0 L214.0,666 L450.0,666 L450.0,596.0" fill="none" stroke="#2B3A35" stroke-width="1.6" marker-end="url(#arr)"/>
<text x="320.0" y="660" font-size="12.5" fill="#3B4743" paint-order="stroke" stroke="#FFFFFF" stroke-width="4">yes</text>
<path d="M436.0,492.0 L436.0,328.0" fill="none" stroke="#2B3A35" stroke-width="1.6" marker-end="url(#arr)"/>
<path d="M464.0,596.0 L464.0,760.0" fill="none" stroke="#2B3A35" stroke-width="1.6" marker-end="url(#arr)"/>
<path d="M450.0,760.0 L450.0,678 L800.0,678 L800.0,344.0 L720.0,344.0 L720.0,328.0" fill="none" stroke="#2B3A35" stroke-width="1.6" marker-end="url(#arr)"/>
<path d="M548.0,276.0 L588.0,276.0" fill="none" stroke="#2B3A35" stroke-width="1.6" marker-end="url(#arr)"/>
<path d="M700.0,328.0 L700.0,492.0" fill="none" stroke="#2B3A35" stroke-width="1.6" marker-end="url(#arr)"/>
<path d="M784.0,544.0 L824.0,544.0" fill="none" stroke="#2B3A35" stroke-width="1.6" marker-end="url(#arr)"/>
<path d="M936.0,596.0 L936.0,738.0" fill="none" stroke="#2B3A35" stroke-width="1.6" marker-end="url(#arr)"/>
<path d="M1032.0,812.0 L1060.0,812.0" fill="none" stroke="#2B3A35" stroke-width="1.6" marker-end="url(#arr)"/>
<text x="1036.0" y="804.0" font-size="12.5" fill="#3B4743" paint-order="stroke" stroke="#FFFFFF" stroke-width="4">yes</text>
<path d="M922.0,738.0 L922.0,690 L1284.0,690 L1284.0,366.0 L1192.0,366.0 L1192.0,340.0" fill="none" stroke="#2B3A35" stroke-width="1.6" marker-end="url(#arr)"/>
<text x="1028.0" y="684" font-size="12.5" fill="#3B4743" paint-order="stroke" stroke="#FFFFFF" stroke-width="4">no</text>
<path d="M1144.0,760.0 L1144.0,350.0" fill="none" stroke="#2B3A35" stroke-width="1.6" marker-end="url(#arr)"/>
<path d="M1268.0,276.0 L1296.0,276.0" fill="none" stroke="#2B3A35" stroke-width="1.6" marker-end="url(#arr)"/>
<path d="M1408.0,328.0 L1408.0,760.0" fill="none" stroke="#2B3A35" stroke-width="1.6" marker-end="url(#arr)"/>
<text x="1414.0" y="461.6" font-size="12.5" fill="#3B4743" paint-order="stroke" stroke="#FFFFFF" stroke-width="4">calculate</text>
<path d="M1380.0,760.0 L1380.0,328.0" fill="none" stroke="#2B3A35" stroke-width="1.6" marker-end="url(#arr)"/>
<text x="1386.0" y="634.4" font-size="12.5" fill="#3B4743" paint-order="stroke" stroke="#FFFFFF" stroke-width="4">result</text>
<line x1="1492.0" y1="276.0" x2="1514.0" y2="276.0" stroke="#2B3A35" stroke-width="1.6" marker-end="url(#arr)"/>
<circle cx="1530.0" cy="276.0" r="14" fill="#FFFFFF" stroke="#2B3A35" stroke-width="1.6"/><text x="1530.0" y="281.0" text-anchor="middle" font-size="14" font-weight="700">6</text>
<circle cx="1434.0" cy="186.0" r="14" fill="#FFFFFF" stroke="#2B3A35" stroke-width="1.6"/><text x="1434.0" y="191.0" text-anchor="middle" font-size="14" font-weight="700">7</text>
<line x1="1434.0" y1="202.0" x2="1434.0" y2="224.0" stroke="#2B3A35" stroke-width="1.6" marker-end="url(#arr)"/>
<rect x="116.0" y="224.0" width="196" height="104" fill="#FFFFFF" stroke="#0F6B5B" stroke-width="1.8"/>
<text x="214.0" y="272.25" text-anchor="middle" font-size="15" fill="#121A17">Press Build study from</text>
<text x="214.0" y="290.25" text-anchor="middle" font-size="15" fill="#121A17">confirmed decisions</text>
<polygon points="214.0,738.0 324.0,812.0 214.0,886.0 104.0,812.0" fill="#FFF7E6" stroke="#3A4A78" stroke-width="1.8"/>
<text x="214.0" y="799.25" text-anchor="middle" font-size="15" fill="#121A17">Signed in, plan</text>
<text x="214.0" y="817.25" text-anchor="middle" font-size="15" fill="#121A17">credit available,</text>
<text x="214.0" y="835.25" text-anchor="middle" font-size="15" fill="#121A17">study step first?</text>
<rect x="352.0" y="492.0" width="196" height="104" fill="#FFFFFF" stroke="#B07A16" stroke-width="1.8"/>
<text x="450.0" y="514.9" text-anchor="middle" font-size="14" fill="#121A17">Draft the study:</text>
<text x="450.0" y="531.9" text-anchor="middle" font-size="14" fill="#121A17">population, design fit,</text>
<text x="450.0" y="548.9" text-anchor="middle" font-size="14" fill="#121A17">endpoints, provenance,</text>
<text x="450.0" y="565.9" text-anchor="middle" font-size="14" fill="#121A17">data collection; ask up</text>
<text x="450.0" y="582.9" text-anchor="middle" font-size="14" fill="#121A17">to 3 questions</text>
<polygon points="366.0,224.0 548.0,224.0 534.0,328.0 352.0,328.0" fill="#FFFFFF" stroke="#0F6B5B" stroke-width="1.8"/>
<text x="450.0" y="254.25" text-anchor="middle" font-size="15" fill="#121A17">Answer the model&#x27;s</text>
<text x="450.0" y="272.25" text-anchor="middle" font-size="15" fill="#121A17">questions; answers</text>
<text x="450.0" y="290.25" text-anchor="middle" font-size="15" fill="#121A17">pinned as facts, &quot;not</text>
<text x="450.0" y="308.25" text-anchor="middle" font-size="15" fill="#121A17">sure&quot; never pinned</text>
<rect x="352.0" y="201.0" width="34" height="20" rx="4" fill="#0F6B5B"/><text x="369.0" y="216.0" text-anchor="middle" font-size="12.5" font-weight="700" fill="#FFFFFF">I7</text>
<rect x="352.0" y="760.0" width="196" height="104" fill="#FFFFFF" stroke="#3A4A78" stroke-width="1.8"/>
<text x="450.0" y="799.25" text-anchor="middle" font-size="15" fill="#121A17">Deterministic checks</text>
<text x="450.0" y="817.25" text-anchor="middle" font-size="15" fill="#121A17">and repair loop on the</text>
<text x="450.0" y="835.25" text-anchor="middle" font-size="15" fill="#121A17">study draft</text>
<rect x="588.0" y="224.0" width="196" height="104" fill="#FFFFFF" stroke="#0F6B5B" stroke-width="1.8"/>
<text x="686.0" y="272.25" text-anchor="middle" font-size="15" fill="#121A17">Press Draft analyses</text>
<text x="686.0" y="290.25" text-anchor="middle" font-size="15" fill="#121A17">for all active aims</text>
<rect x="588.0" y="492.0" width="196" height="104" fill="#FFFFFF" stroke="#B07A16" stroke-width="1.8"/>
<text x="686.0" y="508.55" text-anchor="middle" font-size="13" fill="#121A17">Draft each aim&#x27;s analysis</text>
<text x="686.0" y="524.55" text-anchor="middle" font-size="13" fill="#121A17">contract, sizing method</text>
<text x="686.0" y="540.55" text-anchor="middle" font-size="13" fill="#121A17">token, exhibits, code</text>
<text x="686.0" y="556.55" text-anchor="middle" font-size="13" fill="#121A17">scope; propose</text>
<text x="686.0" y="572.55" text-anchor="middle" font-size="13" fill="#121A17">multiplicity and accrual;</text>
<text x="686.0" y="588.55" text-anchor="middle" font-size="13" fill="#121A17">ask 1 question</text>
<rect x="824.0" y="492.0" width="196" height="104" fill="#FFFFFF" stroke="#B07A16" stroke-width="1.8"/>
<text x="922.0" y="514.9" text-anchor="middle" font-size="14" fill="#121A17">Two reviewers with 7</text>
<text x="922.0" y="531.9" text-anchor="middle" font-size="14" fill="#121A17">safety verdicts; one</text>
<text x="922.0" y="548.9" text-anchor="middle" font-size="14" fill="#121A17">guarded patch;</text>
<text x="922.0" y="565.9" text-anchor="middle" font-size="14" fill="#121A17">adjudicator judges,</text>
<text x="922.0" y="582.9" text-anchor="middle" font-size="14" fill="#121A17">never edits</text>
<polygon points="922.0,738.0 1032.0,812.0 922.0,886.0 812.0,812.0" fill="#FFF7E6" stroke="#3A4A78" stroke-width="1.8"/>
<text x="922.0" y="782.9" text-anchor="middle" font-size="14" fill="#121A17">37 checks: sizing,</text>
<text x="922.0" y="799.9" text-anchor="middle" font-size="14" fill="#121A17">analysis, diagram</text>
<text x="922.0" y="816.9" text-anchor="middle" font-size="14" fill="#121A17">and exhibits</text>
<text x="922.0" y="833.9" text-anchor="middle" font-size="14" fill="#121A17">contradict the</text>
<text x="922.0" y="850.9" text-anchor="middle" font-size="14" fill="#121A17">estimand?</text>
<rect x="1060.0" y="760.0" width="196" height="104" fill="#FFFFFF" stroke="#3A4A78" stroke-width="1.8"/>
<text x="1158.0" y="790.25" text-anchor="middle" font-size="15" fill="#121A17">Headline N withheld</text>
<text x="1158.0" y="808.25" text-anchor="middle" font-size="15" fill="#121A17">everywhere; warn and</text>
<text x="1158.0" y="826.25" text-anchor="middle" font-size="15" fill="#121A17">block findings shown</text>
<text x="1158.0" y="844.25" text-anchor="middle" font-size="15" fill="#121A17">with the plan</text>
<polygon points="1158.0,202.0 1268.0,276.0 1158.0,350.0 1048.0,276.0" fill="#FFF7E6" stroke="#0F6B5B" stroke-width="1.8"/>
<text x="1158.0" y="254.25" text-anchor="middle" font-size="15" fill="#121A17">Data the analysis needs</text>
<text x="1158.0" y="272.25" text-anchor="middle" font-size="15" fill="#121A17">beyond the map: add to</text>
<text x="1158.0" y="290.25" text-anchor="middle" font-size="15" fill="#121A17">the map, or remove from</text>
<text x="1158.0" y="308.25" text-anchor="middle" font-size="15" fill="#121A17">the analysis with a note?</text>
<rect x="1048.0" y="179.0" width="34" height="20" rx="4" fill="#0F6B5B"/><text x="1065.0" y="194.0" text-anchor="middle" font-size="12.5" font-weight="700" fill="#FFFFFF">D6</text>
<polygon points="1310.0,224.0 1492.0,224.0 1478.0,328.0 1296.0,328.0" fill="#FFFFFF" stroke="#0F6B5B" stroke-width="1.8"/>
<text x="1394.0" y="240.55" text-anchor="middle" font-size="13" fill="#121A17">Analysis contract (8</text>
<text x="1394.0" y="256.55" text-anchor="middle" font-size="13" fill="#121A17">fields), sizing</text>
<text x="1394.0" y="272.55" text-anchor="middle" font-size="13" fill="#121A17">assumptions (8 fields),</text>
<text x="1394.0" y="288.55" text-anchor="middle" font-size="13" fill="#121A17">calculator inputs;</text>
<text x="1394.0" y="304.55" text-anchor="middle" font-size="13" fill="#121A17">press Calculate, then</text>
<text x="1394.0" y="320.55" text-anchor="middle" font-size="13" fill="#121A17">Record this result</text>
<rect x="1296.0" y="201.0" width="34" height="20" rx="4" fill="#0F6B5B"/><text x="1313.0" y="216.0" text-anchor="middle" font-size="12.5" font-weight="700" fill="#FFFFFF">I8</text>
<rect x="1296.0" y="760.0" width="196" height="104" fill="#FFFFFF" stroke="#3A4A78" stroke-width="1.8"/>
<text x="1394.0" y="790.25" text-anchor="middle" font-size="15" fill="#121A17">Recompute N from typed</text>
<text x="1394.0" y="808.25" text-anchor="middle" font-size="15" fill="#121A17">inputs, 17 methods;</text>
<text x="1394.0" y="826.25" text-anchor="middle" font-size="15" fill="#121A17">none or simulation give</text>
<text x="1394.0" y="844.25" text-anchor="middle" font-size="15" fill="#121A17">no number</text>
</svg>