<svg xmlns="http://www.w3.org/2000/svg" width="1500" height="976" viewBox="0 0 1500 976" font-family="Helvetica, Arial, sans-serif" font-size="15">
<defs><marker id="arr" viewBox="0 0 10 10" refX="9" refY="5" markerWidth="8" markerHeight="8" orient="auto-start-reverse"><path d="M0,0 L10,5 L0,10 z" fill="#2B3A35"/></marker></defs>
<rect width="1500" height="976" fill="#FFFFFF"/>
<text x="96" y="34" font-size="22" font-weight="700" fill="#121A17">Panel C. Design confirmation and the first plan steps</text>
<text x="96" y="56" font-size="14" fill="#5F6B66">Time runs left to right. Parallelogram = investigator input · diamond = decision · rectangle = process · rounded = start or end · page shape = output.</text>
<text x="96" y="76" font-size="14" fill="#5F6B66">Numbered circles continue on the next panel. Investigator inputs are tagged I1 to I11 and decisions D1 to D11, in the order they are made.</text>
<rect x="96" y="142" width="1180" height="268" fill="#F4F8F6" stroke="#CDD4D0"/>
<rect x="8" y="142" width="88" height="268" fill="#0F6B5B" stroke="#CDD4D0"/>
<g transform="translate(52,276.0) rotate(-90)">
<text text-anchor="middle" fill="#FFFFFF" font-weight="700" font-size="16" y="-6">Investigator</text>
<text text-anchor="middle" fill="#FFFFFF" font-size="12.5" y="14">inputs and decisions</text></g>
<rect x="96" y="410" width="1180" height="268" fill="#FBF6EC" stroke="#CDD4D0"/>
<rect x="8" y="410" width="88" height="268" fill="#B07A16" stroke="#CDD4D0"/>
<g transform="translate(52,544.0) rotate(-90)">
<text text-anchor="middle" fill="#FFFFFF" font-weight="700" font-size="16" y="-6">Stochastic LLMs</text>
<text text-anchor="middle" fill="#FFFFFF" font-size="12.5" y="14">draft and review</text></g>
<rect x="96" y="678" width="1180" height="268" fill="#F1F3F7" stroke="#CDD4D0"/>
<rect x="8" y="678" width="88" height="268" fill="#3A4A78" stroke="#CDD4D0"/>
<g transform="translate(52,812.0) rotate(-90)">
<text text-anchor="middle" fill="#FFFFFF" font-weight="700" font-size="16" y="-6">Deterministic code</text>
<text text-anchor="middle" fill="#FFFFFF" font-size="12.5" y="14">gates, calculators, checks</text></g>
<rect x="96" y="96" width="1180" height="46" fill="#E8EEEA" stroke="#CDD4D0"/>
<text x="686.0" y="125" text-anchor="middle" font-size="16" font-weight="700" fill="#0F6B5B">Design confirmation and the first plan steps</text>
<circle cx="78.0" cy="276.0" r="14" fill="#FFFFFF" stroke="#2B3A35" stroke-width="1.6"/><text x="78.0" y="281.0" text-anchor="middle" font-size="14" font-weight="700">2</text>
<line x1="94.0" y1="276.0" x2="116.0" y2="276.0" stroke="#2B3A35" stroke-width="1.6" marker-end="url(#arr)"/>
<path d="M200.0,492.0 L200.0,328.0" fill="none" stroke="#2B3A35" stroke-width="1.6" marker-end="url(#arr)"/>
<path d="M214.0,328.0 L214.0,398 L576.0,398 L576.0,722.0 L484.0,722.0 L484.0,748.0" fill="none" stroke="#2B3A35" stroke-width="1.6" marker-end="url(#arr)"/>
<path d="M450.0,738.0 L450.0,666 L328.0,666 L328.0,344.0 L248.0,344.0 L248.0,328.0" fill="none" stroke="#2B3A35" stroke-width="1.6" marker-end="url(#arr)"/>
<text x="320.0" y="660" font-size="12.5" fill="#3B4743" paint-order="stroke" stroke="#FFFFFF" stroke-width="4">no</text>
<path d="M436.0,738.0 L436.0,350.0" fill="none" stroke="#2B3A35" stroke-width="1.6" marker-end="url(#arr)"/>
<text x="442.0" y="548.0" font-size="12.5" fill="#3B4743" paint-order="stroke" stroke="#FFFFFF" stroke-width="4">yes</text>
<path d="M450.0,350.0 L450.0,410 L800.0,410 L800.0,744.0 L720.0,744.0 L720.0,760.0" fill="none" stroke="#2B3A35" stroke-width="1.6" marker-end="url(#arr)"/>
<text x="556.0" y="404" font-size="12.5" fill="#3B4743" paint-order="stroke" stroke="#FFFFFF" stroke-width="4">yes</text>
<path d="M450.0,350.0 L450.0,422 L1048.0,422 L1048.0,722.0 L956.0,722.0 L956.0,748.0" fill="none" stroke="#2B3A35" stroke-width="1.6" marker-end="url(#arr)"/>
<text x="674.0" y="416" font-size="12.5" fill="#3B4743" paint-order="stroke" stroke="#FFFFFF" stroke-width="4">no</text>
<path d="M784.0,812.0 L812.0,812.0" fill="none" stroke="#2B3A35" stroke-width="1.6" marker-end="url(#arr)"/>
<path d="M922.0,738.0 L922.0,678 L1158.0,678 L1158.0,596.0" fill="none" stroke="#2B3A35" stroke-width="1.6" marker-end="url(#arr)"/>
<text x="1028.0" y="672" font-size="12.5" fill="#3B4743" paint-order="stroke" stroke="#FFFFFF" stroke-width="4">yes</text>
<path d="M1144.0,492.0 L1144.0,328.0" fill="none" stroke="#2B3A35" stroke-width="1.6" marker-end="url(#arr)"/>
<line x1="1256.0" y1="276.0" x2="1278.0" y2="276.0" stroke="#2B3A35" stroke-width="1.6" marker-end="url(#arr)"/>
<circle cx="1294.0" cy="276.0" r="14" fill="#FFFFFF" stroke="#2B3A35" stroke-width="1.6"/><text x="1294.0" y="281.0" text-anchor="middle" font-size="14" font-weight="700">3</text>
<polygon points="130.0,224.0 312.0,224.0 298.0,328.0 116.0,328.0" fill="#FFFFFF" stroke="#0F6B5B" stroke-width="1.8"/>
<text x="214.0" y="246.9" text-anchor="middle" font-size="14" fill="#121A17">Define the estimand (6</text>
<text x="214.0" y="263.9" text-anchor="middle" font-size="14" fill="#121A17">fields); each variable</text>
<text x="214.0" y="280.9" text-anchor="middle" font-size="14" fill="#121A17">(9 fields), its role</text>
<text x="214.0" y="297.9" text-anchor="middle" font-size="14" fill="#121A17">per aim, measurement</text>
<text x="214.0" y="314.9" text-anchor="middle" font-size="14" fill="#121A17">settings, relationships</text>
<rect x="116.0" y="201.0" width="34" height="20" rx="4" fill="#0F6B5B"/><text x="133.0" y="216.0" text-anchor="middle" font-size="12.5" font-weight="700" fill="#FFFFFF">I6</text>
<rect x="116.0" y="492.0" width="196" height="104" fill="#FFFFFF" stroke="#B07A16" stroke-width="1.8"/>
<text x="214.0" y="514.9" text-anchor="middle" font-size="14" fill="#121A17">Suggest variables and</text>
<text x="214.0" y="531.9" text-anchor="middle" font-size="14" fill="#121A17">relationships; never an</text>
<text x="214.0" y="548.9" text-anchor="middle" font-size="14" fill="#121A17">adjustment set;</text>
<text x="214.0" y="565.9" text-anchor="middle" font-size="14" fill="#121A17">unquoted phrases</text>
<text x="214.0" y="582.9" text-anchor="middle" font-size="14" fill="#121A17">refused</text>
<polygon points="450.0,738.0 560.0,812.0 450.0,886.0 340.0,812.0" fill="#FFF7E6" stroke="#3A4A78" stroke-width="1.8"/>
<text x="450.0" y="782.9" text-anchor="middle" font-size="14" fill="#121A17">Design gate: estimand</text>
<text x="450.0" y="799.9" text-anchor="middle" font-size="14" fill="#121A17">complete, variables</text>
<text x="450.0" y="816.9" text-anchor="middle" font-size="14" fill="#121A17">complete, measurement</text>
<text x="450.0" y="833.9" text-anchor="middle" font-size="14" fill="#121A17">valid, no confounder</text>
<text x="450.0" y="850.9" text-anchor="middle" font-size="14" fill="#121A17">that is also a mediator?</text>
<polygon points="450.0,202.0 560.0,276.0 450.0,350.0 340.0,276.0" fill="#FFF7E6" stroke="#0F6B5B" stroke-width="1.8"/>
<text x="450.0" y="263.25" text-anchor="middle" font-size="15" fill="#121A17">Request a</text>
<text x="450.0" y="281.25" text-anchor="middle" font-size="15" fill="#121A17">biostatistician</text>
<text x="450.0" y="299.25" text-anchor="middle" font-size="15" fill="#121A17">design review?</text>
<rect x="340.0" y="179.0" width="34" height="20" rx="4" fill="#0F6B5B"/><text x="357.0" y="194.0" text-anchor="middle" font-size="12.5" font-weight="700" fill="#FFFFFF">D6</text>
<rect x="588.0" y="760.0" width="196" height="104" fill="#FFFFFF" stroke="#3A4A78" stroke-width="1.8"/>
<text x="686.0" y="790.25" text-anchor="middle" font-size="15" fill="#121A17">Review recorded against</text>
<text x="686.0" y="808.25" text-anchor="middle" font-size="15" fill="#121A17">a canonical copy of the</text>
<text x="686.0" y="826.25" text-anchor="middle" font-size="15" fill="#121A17">decisions; any change</text>
<text x="686.0" y="844.25" text-anchor="middle" font-size="15" fill="#121A17">makes it stale</text>
<polygon points="922.0,738.0 1032.0,812.0 922.0,886.0 812.0,812.0" fill="#FFF7E6" stroke="#3A4A78" stroke-width="1.8"/>
<text x="922.0" y="799.25" text-anchor="middle" font-size="15" fill="#121A17">Signed in, credit</text>
<text x="922.0" y="817.25" text-anchor="middle" font-size="15" fill="#121A17">available, study</text>
<text x="922.0" y="835.25" text-anchor="middle" font-size="15" fill="#121A17">step first?</text>
<rect x="1060.0" y="492.0" width="196" height="104" fill="#FFFFFF" stroke="#B07A16" stroke-width="1.8"/>
<text x="1158.0" y="531.25" text-anchor="middle" font-size="15" fill="#121A17">Draft step 3, patients</text>
<text x="1158.0" y="549.25" text-anchor="middle" font-size="15" fill="#121A17">and data; ask up to 3</text>
<text x="1158.0" y="567.25" text-anchor="middle" font-size="15" fill="#121A17">questions</text>
<polygon points="1074.0,224.0 1256.0,224.0 1242.0,328.0 1060.0,328.0" fill="#FFFFFF" stroke="#0F6B5B" stroke-width="1.8"/>
<text x="1158.0" y="254.25" text-anchor="middle" font-size="15" fill="#121A17">Answer the model&#x27;s</text>
<text x="1158.0" y="272.25" text-anchor="middle" font-size="15" fill="#121A17">questions; answers</text>
<text x="1158.0" y="290.25" text-anchor="middle" font-size="15" fill="#121A17">pinned as facts, &quot;not</text>
<text x="1158.0" y="308.25" text-anchor="middle" font-size="15" fill="#121A17">sure&quot; never pinned</text>
<rect x="1060.0" y="201.0" width="34" height="20" rx="4" fill="#0F6B5B"/><text x="1077.0" y="216.0" text-anchor="middle" font-size="12.5" font-weight="700" fill="#FFFFFF">I7</text>
</svg>